<svg id="visual" viewBox="0 0 675 900" width="675" height="900" xmlns="http://www.w3.org/2000/svg" xmlns:xlink="http://www.w3.org/1999/xlink" version="1.1"><rect x="0" y="0" width="675" height="900" fill="#FFFFFF"></rect><defs><linearGradient id="grad1_0" x1="0%" y1="0%" x2="100%" y2="100%"><stop offset="30%" stop-color="#ffffff" stop-opacity="1"></stop><stop offset="70%" stop-color="#ffffff" stop-opacity="1"></stop></linearGradient></defs><defs><linearGradient id="grad2_0" x1="0%" y1="0%" x2="100%" y2="100%"><stop offset="30%" stop-color="#ffffff" stop-opacity="1"></stop><stop offset="70%" stop-color="#ffffff" stop-opacity="1"></stop></linearGradient></defs><g transform="translate(675, 0)"><path d="M0 140.6C-18.5 137.5 -36.9 134.3 -52.4 126.6C-67.9 118.8 -80.5 106.4 -94 94C-107.6 81.7 -122 69.5 -129.9 53.8C-137.8 38.2 -139.2 19.1 -140.6 0L0 0Z" fill="#00141e"></path></g><g transform="translate(0, 900)"><path d="M0 -140.6C17.3 -134.9 34.7 -129.2 50.5 -122C66.4 -114.7 80.8 -105.9 94.8 -94.8C108.7 -83.6 122.3 -70 129.9 -53.8C137.5 -37.6 139.1 -18.8 140.6 0L0 0Z" fill="#00141e"></path></g></svg>